<svg xmlns="http://www.w3.org/2000/svg" version="1.1" height="240" width="528" viewBox="0 0 528 240" class="diagram" text-anchor="middle" font-family="monospace" font-size="13px" stroke-linecap="round">
<path d="M 8,32 L 8,192" fill="none" stroke="black"/>
<path d="M 200,32 L 200,192" fill="none" stroke="black"/>
<path d="M 232,64 L 232,224" fill="none" stroke="black"/>
<path d="M 296,32 L 296,176" fill="none" stroke="black"/>
<path d="M 488,32 L 488,176" fill="none" stroke="black"/>
<path d="M 520,144 L 520,224" fill="none" stroke="black"/>
<path d="M 8,32 L 200,32" fill="none" stroke="black"/>
<path d="M 296,32 L 488,32" fill="none" stroke="black"/>
<path d="M 192,64 L 232,64" fill="none" stroke="black"/>
<path d="M 472,144 L 520,144" fill="none" stroke="black"/>
<path d="M 296,176 L 488,176" fill="none" stroke="black"/>
<path d="M 8,192 L 200,192" fill="none" stroke="black"/>
<path d="M 160,224 L 232,224" fill="none" stroke="black"/>
<path d="M 488,224 L 520,224" fill="none" stroke="black"/>
<polygon class="arrowhead" points="496,224 484,218.4 484,229.6" fill="black" transform="rotate(180,488,224)"/>
<polygon class="arrowhead" points="168,224 156,218.4 156,229.6" fill="black" transform="rotate(180,160,224)"/>
<circle cx="464" cy="144" r="6" class="opendot" fill="white" stroke="black"/>
<g class="text">
<text x="104" y="20">SHAKEN PASSporT</text>
<text x="396" y="20">VVP PASSporT</text>
<text x="56" y="52">protected</text>
<text x="344" y="52">protected</text>
<text x="108" y="68">kid: pubkey of OSP</text>
<text x="380" y="68">kid: AID of OP</text>
<text x="48" y="84">payload</text>
<text x="336" y="84">payload</text>
<text x="48" y="100">iat</text>
<text x="336" y="100">iat</text>
<text x="52" y="116">orig</text>
<text x="340" y="116">orig</text>
<text x="52" y="132">dest</text>
<text x="340" y="132">dest</text>
<text x="60" y="148">attest</text>
<text x="392" y="148">evd (SAID = ref t</text>
<text x="92" y="164">...more claims</text>
<text x="368" y="164">signature of OP</text>
<text x="84" y="180">signature of OSP</text>
<text x="92" y="228">pubkey in cert</text>
<text x="388" y="228">data graph of evidence</text>
</g>
</svg>
