<svg xmlns="http://www.w3.org/2000/svg" version="1.1" height="304" width="456" viewBox="0 0 456 304" class="diagram" text-anchor="middle" font-family="monospace" font-size="13px" stroke-linecap="round">
<path d="M 8,32 L 8,192" fill="none" stroke="black"/>
<path d="M 200,32 L 200,192" fill="none" stroke="black"/>
<path d="M 248,32 L 248,192" fill="none" stroke="black"/>
<path d="M 248,240 L 248,288" fill="none" stroke="black"/>
<path d="M 376,240 L 376,288" fill="none" stroke="black"/>
<path d="M 432,64 L 432,272" fill="none" stroke="black"/>
<path d="M 448,32 L 448,192" fill="none" stroke="black"/>
<path d="M 8,32 L 200,32" fill="none" stroke="black"/>
<path d="M 248,32 L 448,32" fill="none" stroke="black"/>
<path d="M 400,64 L 432,64" fill="none" stroke="black"/>
<path d="M 8,192 L 200,192" fill="none" stroke="black"/>
<path d="M 248,192 L 448,192" fill="none" stroke="black"/>
<path d="M 248,240 L 376,240" fill="none" stroke="black"/>
<path d="M 376,272 L 432,272" fill="none" stroke="black"/>
<path d="M 248,288 L 376,288" fill="none" stroke="black"/>
<polygon class="arrowhead" points="408,64 396,58.4 396,69.6" fill="black" transform="rotate(180,400,64)"/>
<g class="text">
<text x="28" y="20">X509</text>
<text x="268" y="20">ACDC</text>
<text x="36" y="52">Data</text>
<text x="304" y="52">v (version)</text>
<text x="64" y="68">Version</text>
<text x="324" y="68">d (SAID of item)</text>
<text x="88" y="84">Serial Number</text>
<text x="328" y="84">i (AID of issuer)</text>
<text x="100" y="100">Issuer: DN of issuer</text>
<text x="340" y="100">ri (status registry)</text>
<text x="52" y="116">Validity</text>
<text x="300" y="116">s (schema)</text>
<text x="104" y="132">Subject: DN of issuee</text>
<text x="316" y="132">a (attributes)</text>
<text x="104" y="148">Sub PubKey Info: KeyX</text>
<text x="336" y="148">i (AID of issuee)</text>
<text x="60" y="164">Extensions</text>
<text x="340" y="164">dt (issuance date)</text>
<text x="56" y="180">Signature</text>
<text x="292" y="180">...etc</text>
<text x="256" y="228">KEL</text>
<text x="312" y="260">signed anchor</text>
<text x="292" y="276">for SAID</text>
</g>
</svg>
