<svg xmlns="http://www.w3.org/2000/svg" version="1.1" height="528" width="512" viewBox="0 0 512 528" class="diagram" text-anchor="middle" font-family="monospace" font-size="13px" stroke-linecap="round">
<path d="M 24,32 L 24,128" fill="none" stroke="black"/>
<path d="M 24,240 L 24,272" fill="none" stroke="black"/>
<path d="M 24,304 L 24,352" fill="none" stroke="black"/>
<path d="M 24,400 L 24,432" fill="none" stroke="black"/>
<path d="M 24,464 L 24,512" fill="none" stroke="black"/>
<path d="M 128,192 L 128,208" fill="none" stroke="black"/>
<path d="M 216,32 L 216,88" fill="none" stroke="black"/>
<path d="M 216,104 L 216,128" fill="none" stroke="black"/>
<path d="M 224,240 L 224,272" fill="none" stroke="black"/>
<path d="M 224,304 L 224,352" fill="none" stroke="black"/>
<path d="M 224,400 L 224,512" fill="none" stroke="black"/>
<path d="M 248,192 L 248,416" fill="none" stroke="black"/>
<path d="M 272,240 L 272,272" fill="none" stroke="black"/>
<path d="M 272,304 L 272,336" fill="none" stroke="black"/>
<path d="M 272,400 L 272,496" fill="none" stroke="black"/>
<path d="M 288,496 L 288,512" fill="none" stroke="black"/>
<path d="M 296,80 L 296,128" fill="none" stroke="black"/>
<path d="M 320,128 L 320,144" fill="none" stroke="black"/>
<path d="M 360,192 L 360,208" fill="none" stroke="black"/>
<path d="M 400,80 L 400,128" fill="none" stroke="black"/>
<path d="M 448,400 L 448,496" fill="none" stroke="black"/>
<path d="M 464,240 L 464,336" fill="none" stroke="black"/>
<path d="M 464,440 L 464,512" fill="none" stroke="black"/>
<path d="M 488,112 L 488,144" fill="none" stroke="black"/>
<path d="M 488,192 L 488,464" fill="none" stroke="black"/>
<path d="M 24,32 L 216,32" fill="none" stroke="black"/>
<path d="M 296,80 L 312,80" fill="none" stroke="black"/>
<path d="M 360,80 L 400,80" fill="none" stroke="black"/>
<path d="M 88,96 L 296,96" fill="none" stroke="black"/>
<path d="M 400,112 L 488,112" fill="none" stroke="black"/>
<path d="M 24,128 L 216,128" fill="none" stroke="black"/>
<path d="M 296,128 L 400,128" fill="none" stroke="black"/>
<path d="M 128,192 L 360,192" fill="none" stroke="black"/>
<path d="M 24,240 L 224,240" fill="none" stroke="black"/>
<path d="M 272,240 L 464,240" fill="none" stroke="black"/>
<path d="M 272,336 L 464,336" fill="none" stroke="black"/>
<path d="M 24,352 L 224,352" fill="none" stroke="black"/>
<path d="M 24,400 L 224,400" fill="none" stroke="black"/>
<path d="M 272,400 L 448,400" fill="none" stroke="black"/>
<path d="M 224,416 L 248,416" fill="none" stroke="black"/>
<path d="M 448,416 L 464,416" fill="none" stroke="black"/>
<path d="M 448,432 L 488,432" fill="none" stroke="black"/>
<path d="M 464,464 L 488,464" fill="none" stroke="black"/>
<path d="M 272,496 L 448,496" fill="none" stroke="black"/>
<path d="M 24,512 L 224,512" fill="none" stroke="black"/>
<path d="M 288,512 L 464,512" fill="none" stroke="black"/>
<circle cx="320" cy="80" r="6" class="opendot" fill="white" stroke="black"/>
<g class="text">
<text x="124" y="20">VVP PASSporT</text>
<text x="72" y="52">protected</text>
<text x="12" y="68">..</text>
<text x="96" y="68">...kid: AID of OP</text>
<text x="8" y="84">:</text>
<text x="64" y="84">payload</text>
<text x="340" y="84">f-OP</text>
<text x="8" y="100">:</text>
<text x="64" y="100">evd</text>
<text x="336" y="100">SAID of</text>
<text x="8" y="116">:</text>
<text x="96" y="116">signature of OP</text>
<text x="348" y="116">data graph</text>
<text x="8" y="132">:</text>
<text x="8" y="148">:</text>
<text x="8" y="164">:</text>
<text x="228" y="164">Accountable Party Evidence</text>
<text x="424" y="164">Delegation Evidence</text>
<text x="12" y="180">v?</text>
<text x="312" y="180">(APE)</text>
<text x="484" y="180">(DE)</text>
<text x="100" y="228">vetting credential</text>
<text x="348" y="228">TNAlloc credential</text>
<text x="52" y="260">SAID</text>
<text x="300" y="260">SAID</text>
<text x="104" y="276">AID of issuer</text>
<text x="352" y="276">AID of issuer</text>
<text x="124" y="292">..:...AID of AP............:..</text>
<text x="312" y="292">..:...AID of AP</text>
<text x="8" y="308">:</text>
<text x="92" y="308">legal name</text>
<text x="344" y="308">TNAllocList</text>
<text x="8" y="324">:</text>
<text x="116" y="324">legal identifier</text>
<text x="372" y="324">...more attributes</text>
<text x="8" y="340">:</text>
<text x="124" y="340">...more attributes</text>
<text x="8" y="356">:</text>
<text x="8" y="372">:</text>
<text x="8" y="388">:</text>
<text x="92" y="388">brand credential</text>
<text x="340" y="388">more credentials</text>
<text x="8" y="404">:</text>
<text x="8" y="420">:</text>
<text x="52" y="420">SAID</text>
<text x="8" y="436">:</text>
<text x="104" y="436">AID of issuer</text>
<text x="360" y="436">e.g., delegate RTU,</text>
<text x="64" y="452">:.:...AID of AP</text>
<text x="352" y="452">vet for call ctr,</text>
<text x="92" y="468">brand name</text>
<text x="364" y="468">proxy right to brand</text>
<text x="68" y="484">logo</text>
<text x="124" y="500">...more attributes</text>
</g>
</svg>
