<svg xmlns="http://www.w3.org/2000/svg" version="1.1" height="432" width="408" viewBox="0 0 408 432" class="diagram" text-anchor="middle" font-family="monospace" font-size="13px" stroke-linecap="round">
<path d="M 8,48 L 8,272" fill="none" stroke="black"/>
<path d="M 72,320 L 72,328" fill="none" stroke="black"/>
<path d="M 72,368 L 72,376" fill="none" stroke="black"/>
<path d="M 112,48 L 112,272" fill="none" stroke="black"/>
<path d="M 152,48 L 152,160" fill="none" stroke="black"/>
<path d="M 216,320 L 216,328" fill="none" stroke="black"/>
<path d="M 216,344 L 216,360" fill="none" stroke="black"/>
<path d="M 224,80 L 224,88" fill="none" stroke="black"/>
<path d="M 224,104 L 224,120" fill="none" stroke="black"/>
<path d="M 256,48 L 256,160" fill="none" stroke="black"/>
<path d="M 296,48 L 296,80" fill="none" stroke="black"/>
<path d="M 400,48 L 400,80" fill="none" stroke="black"/>
<path d="M 8,48 L 112,48" fill="none" stroke="black"/>
<path d="M 152,48 L 256,48" fill="none" stroke="black"/>
<path d="M 296,48 L 400,48" fill="none" stroke="black"/>
<path d="M 296,80 L 400,80" fill="none" stroke="black"/>
<path d="M 152,160 L 256,160" fill="none" stroke="black"/>
<path d="M 8,272 L 112,272" fill="none" stroke="black"/>
<path d="M 240,96 C 248.83064,96 256,103.16936 256,112" fill="none" stroke="black"/>
<path class="jump" d="M 224,104 C 218,104 218,88 224,88" fill="none" stroke="black"/><path class="jump" d="M 216,344 C 210,344 210,328 216,328" fill="none" stroke="black"/><g class="text">
<text x="56" y="20">Fully</text>
<text x="208" y="20">Partially</text>
<text x="344" y="20">Fully</text>
<text x="56" y="36">Expanded ACDC</text>
<text x="204" y="36">Compact ACDC</text>
<text x="348" y="36">Compact ACDC</text>
<text x="40" y="68">a = {</text>
<text x="184" y="68">a = {</text>
<text x="348" y="68">a = H(...)</text>
<text x="60" y="84">b = N,</text>
<text x="200" y="84">b = N</text>
<text x="56" y="100">C = {</text>
<text x="200" y="100">c = H</text>
<text x="232" y="100">c</text>
<text x="76" y="116">d = M,</text>
<text x="200" y="116">g = Q</text>
<text x="76" y="132">e = O,</text>
<text x="212" y="132">i = H(i)</text>
<text x="72" y="148">f = P</text>
<text x="168" y="148">}</text>
<text x="44" y="164">},</text>
<text x="60" y="180">g = Q,</text>
<text x="56" y="196">i = {</text>
<text x="76" y="212">j = R,</text>
<text x="72" y="228">k = S</text>
<text x="40" y="244">}</text>
<text x="24" y="260">}</text>
<text x="48" y="308">H(a) = H(</text>
<text x="192" y="308">H(a) = H(</text>
<text x="344" y="308">H(a) = SAID</text>
<text x="48" y="324">b = N</text>
<text x="192" y="324">b = N</text>
<text x="64" y="340">c = H(c),</text>
<text x="192" y="340">c = H</text>
<text x="232" y="340">c),</text>
<text x="72" y="356">recurse</text>
<text x="192" y="356">g = Q</text>
<text x="48" y="372">g = Q</text>
<text x="204" y="372">i = H(i)</text>
<text x="60" y="388">i = H(i)</text>
<text x="188" y="388">) = SAID</text>
<text x="72" y="404">recurse</text>
<text x="44" y="420">) = SAID</text>
</g>
</svg>
